<svg width="50" height="50" viewBox="0 0 50 50" fill="none" xmlns="http://www.w3.org/2000/svg">
<path d="M21.7891 49.9512L17.0234 48.2227C16.5234 48.0469 16.2422 47.3926 16.3828 46.7676L27.0469 0.849611C27.1875 0.224611 27.7109 -0.126952 28.2109 0.0488294L32.9766 1.77735C33.4766 1.95313 33.7578 2.60742 33.6172 3.23242L22.9531 49.1504C22.8047 49.7754 22.2891 50.1367 21.7891 49.9512ZM12.8828 38.9941L16.2812 34.4629C16.6406 33.9844 16.6172 33.2227 16.2188 32.7832L9.14062 25L16.2188 17.2168C16.6172 16.7773 16.6484 16.0156 16.2812 15.5371L12.8828 11.0059C12.5312 10.5371 11.9375 10.5078 11.5547 10.957L0.296875 24.1406C-0.101563 24.5996 -0.101563 25.3906 0.296875 25.8496L11.5547 39.043C11.9375 39.4922 12.5312 39.4727 12.8828 38.9941ZM38.4453 39.0527L49.7031 25.8594C50.1016 25.4004 50.1016 24.6094 49.7031 24.1504L38.4453 10.9473C38.0703 10.5078 37.4766 10.5273 37.1172 10.9961L33.7188 15.5273C33.3594 16.0059 33.3828 16.7676 33.7812 17.207L40.8594 25L33.7812 32.7832C33.3828 33.2227 33.3516 33.9844 33.7188 34.4629L37.1172 38.9941C37.4688 39.4727 38.0625 39.4922 38.4453 39.0527Z" fill="#D92950"/>
</svg>
